<svg id="icon-heart" class="icon" viewBox="2 -10 105 115">
    <g class="heart-island" id="heart-island-1">
        <line class="heart-line" x1="68.69" y1="55.1" x2="72.09" y2="82.8"/>
        <line class="heart-line" x1="68.69" y1="55.1" x2="96.99" y2="60.7"/>
        <line class="heart-line" x1="68.69" y1="55.1" x2="82.89" y2="44.7"/>
        <line class="heart-line" x1="68.69" y1="55.1" x2="61.69" y2="27.7"/>
        <line class="heart-line" x1="68.79" y1="55.1" x2="48.59" y2="38.6"/>
        <line class="heart-line" x1="68.69" y1="55.1" x2="33.49" y2="51.7"/>
        <line class="heart-line" x1="68.69" y1="55.1" x2="48.99" y2="75.4"/>
    </g>
    <g class="heart-island" id="heart-island-2">
        <line class="heart-line" x1="33.49" y1="51.7" x2="48.59" y2="38.6"/>
        <line class="heart-line" x1="33.49" y1="51.7" x2="37.69" y2="22.8"/>
        <line class="heart-line" x1="33.49" y1="51.7" x2="10.19" y2="30.4"/>
        <line class="heart-line" x1="33.49" y1="51.7" x2="8.99" y2="59.3"/>
        <line class="heart-line" x1="33.49" y1="51.7" x2="27.89" y2="78.5"/>
        <line class="heart-line" x1="33.49" y1="51.7" x2="48.99" y2="75.4"/>
    </g>
    <g class="heart-island" id="heart-island-3">
        <line class="heart-line" x1="37.69" y1="22.8" x2="10.19" y2="30.4"/>
        <line class="heart-line" x1="37.69" y1="22.8" x2="19.29" y2="15"/>
        <line class="heart-line" x1="37.69" y1="22.8" x2="35.89" y2="1.9"/>
        <line class="heart-line" x1="37.69" y1="22.8" x2="48.09" y2="7.5"/>
        <line class="heart-line" x1="37.69" y1="22.8" x2="53.29" y2="12.6"/>
        <line class="heart-line" x1="37.69" y1="22.8" x2="61.69" y2="27.7"/>
        <line class="heart-line" x1="37.69" y1="22.8" x2="48.59" y2="38.6"/>
    </g>
    <g class="heart-island" id="heart-island-4">
        <line class="heart-line" x1="61.69" y1="27.7" x2="48.59" y2="38.6"/>
        <line class="heart-line" x1="61.69" y1="27.7" x2="53.29" y2="12.6"/>
        <line class="heart-line" x1="61.69" y1="27.7" x2="60.59" y2="6.8"/>
        <line class="heart-line" x1="61.69" y1="27.7" x2="85.39" y2="14.9"/>
        <line class="heart-line" x1="61.69" y1="27.7" x2="82.89" y2="44.7"/>
    </g>
    <g class="heart-island" id="heart-island-5">
        <line class="heart-line" x1="48.99" y1="75.4" x2="27.89" y2="78.5"/>
        <line class="heart-line" x1="48.99" y1="75.4" x2="53.29" y2="94.2"/>
        <line class="heart-line" x1="48.99" y1="75.4" x2="72.09" y2="82.8"/>
    </g>
    <g class="heart-island" id="heart-island-6">
        <line class="heart-line" x1="85.39" y1="14.9" x2="82.89" y2="44.7"/>
        <line class="heart-line" x1="85.39" y1="14.9" x2="96.89" y2="34.3"/>
        <line class="heart-line" x1="85.49" y1="14.9" x2="102.09" y2="13.4"/>
        <line class="heart-line" x1="85.39" y1="14.9" x2="89.79" y2="4.2"/>
        <line class="heart-line" x1="85.39" y1="14.9" x2="74.39" y2="1.3"/>
        <line class="heart-line" x1="60.59" y1="6.8" x2="85.39" y2="14.9"/>
    </g>
    <g class="heart-island" id="heart-island-7">
        <line class="heart-line" x1="19.29" y1="15" x2="35.89" y2="1.9"/>
        <line class="heart-line" x1="19.29" y1="15" x2="18.19" y2="2.8"/>
        <line class="heart-line" x1="19.29" y1="15" x2="5.69" y2="13.6"/>
        <line class="heart-line" x1="19.29" y1="15" x2="10.19" y2="30.4"/>
    </g>
    <g class="heart-island" id="heart-island-8">
        <line class="heart-line" x1="96.89" y1="34.3" x2="102.09" y2="13.4"/>
        <line class="heart-line" x1="96.89" y1="34.3" x2="107.39" y2="35.5"/>
        <line class="heart-line" x1="96.89" y1="34.3" x2="96.99" y2="60.7"/>
        <line class="heart-line" x1="96.89" y1="34.3" x2="82.89" y2="44.7"/>
    </g>
    <g class="heart-island" id="heart-island-9">
        <line class="heart-line" x1="10.19" y1="30.4" x2="8.99" y2="59.3"/>
        <line class="heart-line" x1="10.19" y1="30.4" x2="1.29" y2="34.8"/>
        <line class="heart-line" x1="10.19" y1="30.4" x2="5.69" y2="13.6"/>
    </g>
    <g class="heart-island" id="heart-island-10">
        <line class="heart-line" x1="82.89" y1="44.7" x2="96.99" y2="60.7"/>
    </g>
    <polyline id="heart-island-right" class="heart-line" points="53.29 12.6 60.59 6.8 74.39 1.3 89.79 4.2 102.09 13.4 107.39 35.5 96.99 60.7 72.09 82.8 53.29 94.2"/>
    <polyline id="heart-island-left" class="heart-line" points="53.29 12.6 48.09 7.5 35.89 1.9 18.19 2.8 5.69 13.6 1.29 34.8 8.99 59.3 27.89 78.5 53.29 94.2"/>
</svg>