<svg xmlns="http://www.w3.org/2000/svg" viewBox="0 0 1383.57 429.64"><defs><style>.a{fill:#fff;}</style></defs><title>Backfeed Triangle Logo for website</title><path class="a" d="M-646.3,1569.45c-4.89-4-12.8-2.52-17.65,3.36s-4.81,13.94.07,18a10.1,10.1,0,0,0,6.52,2.27,12.4,12.4,0,0,0,2.41-.24,15.29,15.29,0,0,0,8.72-5.39,15.29,15.29,0,0,0,3.62-9.58A10.54,10.54,0,0,0-646.3,1569.45Zm-1.36,16.78a13.43,13.43,0,0,1-7.64,4.74,8.71,8.71,0,0,1-7.38-1.64c-4.09-3.37-4-10.26.18-15.34a12.91,12.91,0,0,1,9.67-4.95,8.3,8.3,0,0,1,5.36,1.84,8.71,8.71,0,0,1,3,6.94A13.43,13.43,0,0,1-647.67,1586.23Z" transform="translate(1001.51 -1447.21)"/><path class="a" d="M-726.09,1724.5c-0.69-.11.17,0.1,0,0h0Z" transform="translate(1001.51 -1447.21)"/><path class="a" d="M-809.86,1640.79l0.83-1.13C-809.34,1640.06-809.61,1640.43-809.86,1640.79Z" transform="translate(1001.51 -1447.21)"/><path class="a" d="M-579.71,1477.47a38.05,38.05,0,0,0-12.23-13.3l-0.34-.24-0.37-.2a269,269,0,0,0-32.45-15h-0.06a25.33,25.33,0,0,0-8.53-1.48c-6.39,0-12,2.45-15.29,6.73a15.72,15.72,0,0,0-2.72,5.39c-6.85.24-9.93,6.52-11,8.88a76.86,76.86,0,0,0-6.35,16.46c-6.24,20.22-32.21,37.5-45.11,43.83l0,0,0,0a10.43,10.43,0,0,0-3.25,2.65,14.33,14.33,0,0,0-6.09,1.82l-0.13.07-0.13.08c-8.22,5-21.08,12.81-22.86,13.8l-0.43.24-0.39.3a15.58,15.58,0,0,0-3.28,3.71,13.27,13.27,0,0,0-5.43,1.89l-29,15.89-1.26.69-0.87,1.13-1.58,2.05a17.28,17.28,0,0,0-8.52,2.89c-12.78,6.4-25.73,12.48-38.5,18.09l-0.14.06-0.13.07a9,9,0,0,0-2.29,1.63h-0.17a17.65,17.65,0,0,0-7.23,1.7l-30.57,10.36h-0.06a14.71,14.71,0,0,0-3.74,1.88,33.79,33.79,0,0,0-6,.82c-1.32.31-4.09,1-7.6,2-4,1.06-8.64,2.27-11.61,3l-9.17,2.24a13.1,13.1,0,0,0-6.89-1.92h-0.29c-25.41,0-43.43,6.78-52.12,19.6-7.25,10.72-7.66,24.67-1.21,41.48a32.22,32.22,0,0,0,9.52,21.08l0.19,0.19,0.2,0.18c8,7,16.92,10.23,28,10.23a129.86,129.86,0,0,0,17-1.52,154.73,154.73,0,0,1,21-1.78c17,0,33.16,4.88,50.71,15.36,6.42,4.08,9.22,5.18,11.34,5.36a18,18,0,0,0,3.91.43h0.63c2.14,2.65,5,4.22,7.54,5.58l0.14,0.08,0.15,0.07,25.38,12.21a14.22,14.22,0,0,0,6,1.81,39.05,39.05,0,0,0,3.75,2.54c3.43,2.15,25.88,14.48,28.43,15.88l0.36,0.2,0.38,0.15a16.66,16.66,0,0,0,2.13.72c3.2,4.54,9.5,9.76,19.41,17.79,10.53,8.53,22.47,18.21,30.2,27.88a40.56,40.56,0,0,0,8.07,7.74,10.08,10.08,0,0,0,6.09,2.48c3.42,15.33,8.6,27.79,15.44,37.09,8.85,12,20.42,18.4,33.46,18.4a51.08,51.08,0,0,0,20.95-4.93c1.32-.57,17.63-7.58,28.26-12.82l0.13-.06,0.13-.07a28.13,28.13,0,0,0,12.4-13.56,41.65,41.65,0,0,0,3.28-17.06,74.23,74.23,0,0,0-7.41-31.13l-0.07-.15-0.08-.14c-4.87-8.82-12.36-13.22-19-17.09-13.35-7.84-26-15.25-23.54-61.39,0.65-8,.24-12.42-0.82-15.25a38.92,38.92,0,0,0,.94-9.33c0-3.14,0-6.79,0-10.31,0-6.29,0-12.79,0-14.15a9.17,9.17,0,0,0-.81-4.17,12.87,12.87,0,0,0,.7-3.4c0.22-3.21,1-26.71,1-29.5a12.9,12.9,0,0,0-.22-2.55,25.57,25.57,0,0,0,3.31-8.61c0.67-3.26,1.94-9.45,3.2-15.62,1.43-7,2.92-14.29,3.42-16.71a20,20,0,0,0,.61-4.53,26,26,0,0,0,2.24-7.92c1.22-7.1,3.5-20.31,22.07-47a20,20,0,0,0,2.32-4,19.54,19.54,0,0,0,3-2.86l0.73-.81a47.09,47.09,0,0,0,12.35-26.1v0A30,30,0,0,0-579.71,1477.47Zm-133.65,60.78s1.8-3.61,2.65-4c10.2-5,41.31-23.7,48.7-48.2a70.05,70.05,0,0,1,5.86-15.19c1.79-3.87,3.46-5.1,5.31-5.1s3.52,1.12,6.11,2.58c3.94,2.29,7.59,4,12,6.42l11.56,6.52a43.61,43.61,0,0,0-3.69,3.45c-4.89,5.1-9,11.63-12.6,18.85-1.81,3.61-3.42,7.43-4.94,11.39-0.77,2-1.47,4-2.18,6-0.17.52-.39,1-0.58,1.51s-0.39,1-.63,1.5c-0.48,1-.92,2-1.48,2.91a60.71,60.71,0,0,1-7.81,10.81c-3,3.38-10,9.35-13.38,12.46-6.61.61-48.17,4.74-52.26,5.37Zm38.15,45.35a16.58,16.58,0,0,0,.37,2.43c0.09,0.4.21,0.79,0.32,1.19s0.27,0.78.41,1.16a17.81,17.81,0,0,0,1.08,2.2,18.1,18.1,0,0,0,1.37,2,20.31,20.31,0,0,0,1.61,1.81c0.29,0.28.58,0.56,0.88,0.83l0.92,0.77,0,0h0l0.29,1.22-11.11,17.6a3.15,3.15,0,0,1-3.65,1.3c-3.18-1-7.22-1.17-12.38.12a26.92,26.92,0,0,0-2.85.73c-1,.29-2,0.66-3,1.05-0.35.14-1,.42-1.7,0.75h0l-0.91.42c-1.26.38-2-.4-2.16-2.14l0.32-20.64,0.1-6.33c0-2.11.11-4.22,0-6.34,0-.53-0.06-1.06-0.14-1.59l-0.11-.79-0.17-.78a11.16,11.16,0,0,0-.47-1.54c-0.07-.17-0.15-0.34-0.24-0.5,6.66-3.95,13.32-8.07,19.86-12.41,5.83-4,11.55-8.1,17-12.52l3.84,9.7c-0.36.34-.72,0.69-1.07,1-0.55.56-1.09,1.14-1.6,1.74s-1,1.21-1.49,1.84-0.93,1.28-1.37,1.94-0.84,1.35-1.22,2-0.73,1.42-1.05,2.15-0.6,1.49-.85,2.26a22,22,0,0,0-.61,2.35,18,18,0,0,0-.31,2.42c0,0.41,0,.81,0,1.22S-675.23,1583.19-675.2,1583.6Zm4.23,71.15,0.14,15.79,0.07,13.29h-0.63a15.46,15.46,0,0,1-3.52-.6c-0.58-.15-1.13-0.37-1.69-0.57s-1.11-.48-1.66-0.73l-3.29-1.49-6.39-2.9-0.56-.25a4.35,4.35,0,0,1-2.55-4.08l0.42-14.83,0.4-12a1.87,1.87,0,0,1,2.57-1.67l0.43,0.17,3.15,1.26,1.61,0.64,0.41,0.16,0.1,0,0.23,0.08,0.21,0.06,0.84,0.26c0.56,0.17,1.22.34,1.84,0.49s1.25,0.28,1.9.37a17.69,17.69,0,0,0,4.06.19,15.3,15.3,0,0,0,1.83-.29c0,1.58,0,3.23.06,5l0,1.72h0Zm-24.74,58,0.19,0.09,0.27,0.13c1.69,0.89,2.07,1.85,2.08,3.95V1717l0,1v0h0c-0.14,6.49-.27,13-0.34,19.36-0.06,3.37-.08,6.71-0.1,10s-0.06,6.57,0,9.78,0,6.37,0,9.46l0,1.8a0.83,0.83,0,0,1-1.27.72c-1.88-1.12-4.61-2.8-8.13-4.85l-5.83-3.42-6.9-4-7.89-4.43c-2.78-1.55-5.73-3.14-8.8-4.82l-9.62-5.13-8.4-4.33c-2.92-1.48-3.35-2.61-3.22-5.59l0.27-7.4,0.14-4c0-.66.06-1.33,0.1-2s0.1-1.32.2-2a22,22,0,0,1,.81-3.87,14.35,14.35,0,0,1,.57-1.5h0l4.67,2.45c2.68,1.41,5.2,2.77,7.55,4.1a65.07,65.07,0,0,0,12.77,5.81,3.9,3.9,0,0,1,.52.19l0.15,0h0.1a19.7,19.7,0,0,0,2.29.24h0.17a13.91,13.91,0,0,0,1.41,0h0c0.31,0,.6-0.05.87-0.1l0.27-.06,0.14,0,0.2-.05,0.32-.08,0.25-.07,0.14-.06,0.09,0h0c0.32-.12.6-0.24,0.82-0.34h0l0.51-.31,0.18-.11h0l0.88-.64,0-.05,0.24-.25,0.35-.36c0.13-.15.26-0.33,0.42-0.53a5.93,5.93,0,0,0,.48-0.7l0.26-.41,0.24-.46a13.46,13.46,0,0,0,.89-2.24,19.63,19.63,0,0,0,.6-2.8c0.16-1,.48-6.83.62-9.49,0.11-2.13,1.52-1.47,2.71-.7,0.11,0.07,5.5,3.36,9.52,5.26,1.6,0.75,3.27,1.7,5.07,2.59h0Zm-112-47.37q13.66-7.75,21.54-5.69c1.07,0.32,2.13.64,3.13,1s2.22,0.73,3.25,1.08,6.12,2.68,7.81,3.53l0.54,0.31v0a54.94,54.94,0,0,1,10.13,6.38,3.12,3.12,0,0,1,1.22,2.91c0.06,1.91-2.58,2.62-4.91,4.15-0.3.17-.6,0.34-0.88,0.52l-2.4,1.22-3.14,1.67c-1.05.55-2.1,1.11-3.13,1.69l-3.11,1.73-1,.56-0.18.09h0c-0.65.37-1.3,0.73-1.95,1.1l-2.94,1.71a29.42,29.42,0,0,0-3.08,1.62,18,18,0,0,0-1.88,1.35q-3.54-1.55-7.2-3.07c-7.69-3.19-15.72-6.32-24-9.15q-3.91-1.34-7.88-2.61a8.75,8.75,0,0,1,1.55-1.66,10.67,10.67,0,0,1,2.53-1.54h0l15.91-8.85h0Zm96.53-42-1.7,1.06,0,0h0c-0.44.28-24.1,14.56-27.18,14.56a2.21,2.21,0,0,1-.93-0.18l0-.78-0.84-24.73-0.22-6.36a12.25,12.25,0,0,0-.44-3.19,6.24,6.24,0,0,0-1.63-2.8,5.29,5.29,0,0,0-.94-0.71q5.44-2.91,11.07-6c7.72-4.23,15.68-8.65,23.68-13.31l2.1-1.24c0,0.07.07,0.13,0.11,0.21a8.87,8.87,0,0,1,.4,1.21l0.16,0.65,0.11,0.7a14.21,14.21,0,0,1,.16,1.43c0.05,0.48.06,1,.08,1.48l0,0.75v0.79l0.06,3.17,0.11,6.33C-707.18,1604.61-706.34,1620.33-711.17,1623.38Zm18.16-4.1c3.32,3,3.14,12.34,2.37,20.13a2.21,2.21,0,0,1-2.62.91l-1.14-.41c-8.58-4-15.82-5.91-16.35-10.21v0C-704.09,1624.47-698.2,1621-693,1619.28Zm-42.7,79.1c6.64-4.06,13.7-8.81,16.46-8.74a1.64,1.64,0,0,1,1.56,1.35c0.18,0.71,0,17.59,0,19.09-1.16,15.31-8.72,14.1-22.27,7-3.36-2-7.06-4.12-11.05-6.3q0.23-.43.49-0.84a20.45,20.45,0,0,1,5.38-5.37c0.5-.37,1-0.71,1.53-1.06l1.54-1,3-1.92,3.42-2.21h0Zm17.5-30.7c-1.2,3.87-1.12,8.86-.9,14.63l-0.83,0c-2.65-2-6.44-3.68-11.11-5.73l-3.11-1.37-0.06,0-0.06,0-2.88-1.25c-6-2.6-12.13-5.29-17.81-5.3a35.52,35.52,0,0,0-7.17-5.65c2.49-1.44,4.88-2.94,7.67-4.81,2-1.31,3.93-2.53,5.85-3.72,4.79-3,9.15-5.66,11.77-9,4.13-1.05,9.3-3.92,16.46-8.06l2.69-1.55c-1,3.54-1.1,7.93-1.23,12.64,0,1.28-.07,2.61-0.13,3.87,0,0.77-.07,1.54-0.11,2.29C-719.4,1659.14-719.65,1663.79-718.22,1667.68ZM-743.85,1607l0.44,6.35c0.16,2.12.28,4.24,0.46,6.35-0.08,13.24,2.75,22.25-4.95,26.16-3,2-6.67,4.1-10.36,6.57a134.2,134.2,0,0,1-13.83,8.15l-1-.37c-0.4-.14-0.82-0.31-1.26-0.44l-1.37-.41c-1-.31-2-0.54-3.09-0.83l-2-.44-0.29-5.36-0.4-7-0.83-14h0v0a15.12,15.12,0,0,0-1.23-4.49,7.39,7.39,0,0,0-1.4-2,6.82,6.82,0,0,0-2-1.37l-0.52-.21,2.48-1.47c2.76-1.62,5.66-3.32,8.72-5,6.12-3.46,12.82-7.08,19.93-10.88l8.94-4.76a4.48,4.48,0,0,1,1.92.89C-744.47,1603.29-744,1605-743.85,1607Zm-37,51.08-0.08,0-0.08-1.56ZM-787.5,1625a5.8,5.8,0,0,1,1.7,1.08,6.2,6.2,0,0,1,1.22,1.63,12.59,12.59,0,0,1,1.1,3.33l1.07,26.48c-7.12-2.6-35.94-14.43-16.41-26.79l0,0,1.52-1,4.46-2.84q1.8-1.15,3.74-2.34A8.34,8.34,0,0,1-787.5,1625Zm2,67.88a30.58,30.58,0,0,1,2.85-1.6h0l6.75-4.22c13.59-8,20.28-11.62,25.72-10.9,4.08,1.13,8.69,3.31,13.19,5.22,7.32,3.27,14,5.2,13.85,8.42l-0.38.18c-0.56.28-1.41,0.67-2.45,1.21s-2.32,1.18-3.76,2-3.07,1.63-4.82,2.62-3.66,2-5.64,3.2l-3.06,1.77c-0.48.27-1.07,0.61-1.6,0.93s-1.09.69-1.63,1.06a29.36,29.36,0,0,0-3.24,2.52,16.55,16.55,0,0,0-2.88,3.33q-0.31.48-.59,1l-1.59-.85c-5.87-3.13-12.3-6.41-19.18-9.71-3.93-1.89-8-3.79-12.23-5.66Zm73.25-40.33c0.33-7.74,0-16.22,2.91-17.79l0.11,0,0.76,0.4c0.5,0.25,1.22.66,2.16,1.11s2.07,1,3.39,1.65,2.8,1.33,4.43,2,3.4,1.53,5.29,2.31l0.42,0.18a3.43,3.43,0,0,1,2.09,3.31l-0.56,12.49-0.58,14.5a2,2,0,0,1-2.75,1.7l-4.73-2.14c-0.89-.4-8.21-3.43-10.38-5.48a7.66,7.66,0,0,1-2.6-4.18c-0.1-.48-0.18-0.95-0.24-1.41C-712.61,1658.73-712.36,1655.7-712.23,1652.6Zm20.64,44,0.35-15.68a1.65,1.65,0,0,1,2.37-1.45h0c2,1,4.14,2.08,6.3,3.08l3.27,1.53,0.85,0.4,0.83,0.37a20.47,20.47,0,0,0,2,.71,17.65,17.65,0,0,0,4.1.65h0.75l0,5c0,7.35,0,15.11,0,23.13q0,3.32,0,6.71a26,26,0,0,1-4.57-1.54l-15.08-6.49a2.53,2.53,0,0,1-1.53-2.36C-691.76,1706-691.69,1701.28-691.59,1696.62Zm18.5-50.72A19.65,19.65,0,0,1-680,1645l-0.84-.24-0.21-.06-0.09,0-0.1,0-0.41-.15-1.63-.59-3.19-1.15-1.71-.62a2.73,2.73,0,0,1-1.8-2.67l0.18-5.05a60.36,60.36,0,0,0,0-6.65,24.7,24.7,0,0,0-.93-5.78,8.82,8.82,0,0,0-1.51-3c4.75-1.4,8.89-1.25,12.48.54a16.15,16.15,0,0,1,3.11,2.6l0,0,0.06,0.06c3.4,4.34,4.84,11.6,5.35,20.1,0,1,.08,2.1.09,3.21A13.59,13.59,0,0,1-673.09,1645.89Zm-74.38-87.37h0l0.13-.2,0.33-.5h0a29.35,29.35,0,0,1,3.62-4.89c2.53-1.42,23.08-13.93,23.08-13.93a7.36,7.36,0,0,1,3.56-1c2.09,0.09,1.18,1.8,1.18,1.8l-7.58,17.06-0.45.86,1-.1c4.45-.43,8.88-0.95,13.33-1.42l13.32-1.5c4.44-.49,8.87-1,13.31-1.56q6.19-.73,12.37-1.5s-11.26,9-17.23,13c-6.5,4.37-13.15,8.51-19.79,12.49-0.22-.23-0.45-0.45-0.68-0.66l-0.69-.45a6.24,6.24,0,0,0-.74-0.35l-0.38-.16-0.39-.11c-0.26-.07-0.52-0.16-0.79-0.2a12.8,12.8,0,0,0-1.6-.18,32.82,32.82,0,0,0-6.34.48l-6.28.81-12.55,1.67-24.72,3.29Zm-42.24,26.79,4.15-5.71L-782,1575s29.88-16.36,30.23-16.51c2.31-.81,3.34-0.55-0.38,5l-14.1,20,3.64-.37c4.2-.43,8.41-0.81,12.6-1.29s8.39-.91,12.58-1.44l12.56-1.58,6.27-.86a30.93,30.93,0,0,1,5.89-.52,11,11,0,0,1,1.29.13c0.21,0,.38.09,0.58,0.13l0.29,0.07,0.25,0.1a3.2,3.2,0,0,1,1,.52l-1.9,1.13c-8,4.68-15.88,9.14-23.58,13.4q-6.15,3.4-12.07,6.64l-0.14,0a13.6,13.6,0,0,0-3.2-.37,37.77,37.77,0,0,0-6.36.6c-8.37,1.42-16.74,2.8-25.1,4.26l-24.63,4.24,16.62-22.88h0Zm-45.91,18a13.78,13.78,0,0,1,3.65-3.73c12.84-5.64,24.58-11.18,37.84-17.83a13.58,13.58,0,0,1,2.85-1.47c4.76-1.94-11.59,20.57-11.59,20.57-0.9,1.08-1.77,2.19-2.66,3.29l-2.64,3.3-2.77,3.46,4.49-.64c2.1-.3,4.2-0.57,6.29-0.9l6.28-1c2.09-.33,4.19-0.62,6.28-1l6.27-1,6.27-1c2.09-.34,4.17-0.73,6.26-1.09,4.17-.75,8.35-1.44,12.51-2.24,1-.21,2.07-0.36,3.07-0.49a28.6,28.6,0,0,1,3.09-.23h0c-9.66,5.29-18.71,10.26-26.75,14.94-4.24,2.46-8.19,4.83-11.81,7.12a16.64,16.64,0,0,0-2.94-.37,37.48,37.48,0,0,0-4.58.13c-1.53.12-3,.3-4.5,0.46-0.75.07-1.5,0.2-2.25,0.29s-1.5.21-2.24,0.34c-3,.48-5.94,1.09-8.88,1.76s-5.86,1.42-8.76,2.19-5.8,1.61-8.67,2.5c-5.75,1.75-11.46,3.62-17.15,5.54q-4.08,1.37-8.14,2.79a1.5,1.5,0,0,1-1.71-2.3l0.53-.74,9-12.57c3.23-4.59,7-10.88,9.39-14.33Zm-42.66,14.91,1-1.74a5.89,5.89,0,0,1,2.9-2.29s20.37-7,30.32-10.16c2.93-.94,5-1.44,5.29-1.54,2.56-.82-9,15-9.8,16.1l-2.48,3.38-2.36,3.46c-0.8,1.13-1.48,2.31-2.2,3.42s-1.35,2.21-2,3.26-5.89,9.17-8.11,10l-17,6-8.48,3-8.49,2.93-5.24,1.76a1.21,1.21,0,0,1-1.33-1.91l11.79-14.58C-886.15,1628.86-878.27,1618.18-878.27,1618.18Zm-33.85,5.8h0l8.18-2c5.53-1.33,16.46-4.23,19.16-4.92,7.17-1.83-1.28,8.84-2.24,9.89s-2,2.14-3,3.32-2.11,2.35-3.13,3.62l-3.14,3.81-3,3.9c-1,1.27-1.92,2.6-2.85,3.85s-1.77,2.49-2.57,3.67-6.35,9.29-11.84,10.5a107.59,107.59,0,0,1-13.31,2.41,74.19,74.19,0,0,1-9.66.49c-1.57,0,5-12.18,8.25-16.65l8.77-12.37c0.78-1.12,1.63-2,2.21-2.82C-917.11,1626.91-914.42,1624.43-912.12,1624Zm-29.32,33.3c-0.51.91-.93,1.77-1.31,2.53l-0.2.41a3.22,3.22,0,0,1-3.33,1.78,32.79,32.79,0,0,1-10-2.91,17.71,17.71,0,0,1-5.25-3.83,10.86,10.86,0,0,1-2.81-5.63,10.54,10.54,0,0,1,1-6.23,16.51,16.51,0,0,1,4-5.15,27.42,27.42,0,0,1,5.57-3.71,38.45,38.45,0,0,1,6.28-2.5c4.34-1.32,9.07-2.75,13.61-3.12,4.37-.35,9.88-1,14.22-1-0.18.18-2,2.46-2.21,2.66-0.6.61-1.27,1.29-2,2.06s-1.47,1.59-2.24,2.5-1.61,1.84-2.4,2.87-1.67,2-2.47,3.14l-2.45,3.3-2.33,3.39c-0.79,1.1-1.46,2.26-2.17,3.35s-1.33,2.17-1.94,3.2S-940.95,1656.35-941.44,1657.27Zm19.56-34.79h0a5.81,5.81,0,0,1,3.25.91c1.23,1.42.37,2.81-1,4.46-4.24-.53-9.84.32-14.28,0.56s-9.38,1.53-13.85,2.74a39.49,39.49,0,0,0-6.53,2.37,26.67,26.67,0,0,0-5.92,3.74,17.88,17.88,0,0,0-4.47,5.5,12.05,12.05,0,0,0-1.27,7.09,12.5,12.5,0,0,0,3.1,6.53,19.45,19.45,0,0,0,5.69,4.33,31.11,31.11,0,0,0,6.61,2.48,45.61,45.61,0,0,0,6.91,1.2,70.4,70.4,0,0,0,13.91-.16,109.93,109.93,0,0,0,13.66-2.34h0.08c11.47-3.59,22.83-7.48,34.15-11.46l16.95-6,17-6c5.66-2,11.33-3.9,17-5.69s11.43-3.53,17.22-5c2.89-.72,5.8-1.38,8.73-1.91,0.73-.14,1.46-0.27,2.2-0.38s1.47-.25,2.21-0.33c1.46-.18,3-0.4,4.44-0.55a36.13,36.13,0,0,1,4.4-.21c0.44,0,.87,0,1.31.08-1,.63-1.94,1.26-2.87,1.88-4.76,3.17-8.35,5.47-11.43,8.2-10.8,9.58,1.56,18.14,7.71,21.44a2.67,2.67,0,0,1,.75,2.47c-0.59.24-1.17,0.49-1.75,0.74-1.32.55-2.61,1.13-3.91,1.72s-2.6,1.17-3.88,1.78l-1.93.91c-0.64.31-1.29,0.6-1.93,0.91l-3.82,1.88c-1.28.62-2.55,1.25-3.81,1.91l-5.68,2.93-1.81,1a13,13,0,0,0-3,1.81,11.45,11.45,0,0,0-2.45,2.75c-5-1.55-10-3-15.08-4.28a250.34,250.34,0,0,0-26.06-5.18,167.91,167.91,0,0,0-25.71-1.74c-2.1.06-4.19,0.17-6.25,0.25-1,0-2,.14-3,0.24l-3,.31-1.49.16-0.77.09-0.73.09-2.92.35c-1,.11-1.93.24-2.88,0.34l-2.85.26a136.1,136.1,0,0,1-21.31.45c-0.83,0-1.64-.12-2.44-0.21l-2.38-.25-2.31-.36c-0.76-.12-1.51-0.23-2.24-0.41l-2.17-.47-2.07-.59c-0.34-.1-0.68-0.18-1-0.3l-1-.36c-0.64-.25-1.3-0.44-1.89-0.74a22.89,22.89,0,0,1-6.32-3.87,16.07,16.07,0,0,1-3.85-4.94,15.62,15.62,0,0,1-1.46-4.87,16.51,16.51,0,0,1-.06-3.79,17.51,17.51,0,0,1,.39-2.33c0.11-.44.19-0.69,0.21-0.75C-964.88,1629.11-946.47,1622.48-921.88,1622.48Zm-49,21.34c0,0.1-.12.34-0.23,0.71a17.59,17.59,0,0,0-.49,2.33,16.72,16.72,0,0,0-.1,3.84,15.24,15.24,0,0,0,1.32,5,16.65,16.65,0,0,0,3.83,5.24,23.69,23.69,0,0,0,6.4,4.21c0.61,0.33,1.27.54,1.92,0.82l1,0.4c0.33,0.13.68,0.23,1,.34l2.11,0.67,2.2,0.55c0.74,0.2,1.5.35,2.27,0.48l2.34,0.42,2.41,0.3c0.81,0.11,1.64.21,2.47,0.26a137.63,137.63,0,0,0,21.57,0l2.88-.21c1-.08,1.93-0.19,2.91-0.29l2.95-.3,0.74-.08,0.71-.07,1.49-.13,3-.26c1-.08,2-0.2,3-0.21,2-.06,4-0.15,6.1-0.19a173.37,173.37,0,0,1,25.35,1.93,247.9,247.9,0,0,1,25.78,5.22c4.89,1.23,9.75,2.6,14.56,4.07-0.14.36-.28,0.72-0.38,1.09a18.38,18.38,0,0,0-.7,3.36c-0.08.56-.1,1.11-0.14,1.66s0,1.14,0,1.69l0,1.54,0.08,1.52,0.34,6.07c0,1,.14,2,0.21,3l0,0.56a1.23,1.23,0,0,1-1.7,1.23q-2.29-.94-4.59-1.85c-4.32-1.71-8.64-3.37-13-4.91a262.25,262.25,0,0,0-25.77-7.91,138.87,138.87,0,0,0-24.88-4,92.53,92.53,0,0,0-11.69,0,106.79,106.79,0,0,0-10.83,1.33c-3.45.58-6.73,1.24-9.88,1.68a49,49,0,0,1-9,.53,43.37,43.37,0,0,1-11.42-2.08c-9.33-3.73-12.61-6.22-13.93-8.27C-973.84,1667.46-974.08,1651.82-970.85,1643.83ZM-831,1719.19a8.22,8.22,0,0,1-2.39.24c-1,0-5.49-.84-11.67-4.77-21.9-13.1-39.47-16.37-54.29-16.37s-27,3.3-37.93,3.3c-8.27,0-15.88-1.89-23.52-8.52l-0.07-.06a26.2,26.2,0,0,1-7.27-14,0.8,0.8,0,0,1,1.16-.84l0.88,0.46c0.51,0.27,11.83,7.52,22.51,7.69a61.32,61.32,0,0,0,9-.46c18.7-2.81,31.74-5,57.46.86,8.21,2.92,17,4.94,25.62,8.1,4.3,1.57,8.59,3.26,12.89,5,1.48,0.6,4.23,1.75,5.79,2.41a2.1,2.1,0,0,1,1.28,1.76c0.1,1.17.26,2.89,0.35,4,0.14,1.7.58,8.36,0.72,10.44A0.79,0.79,0,0,1-831,1719.19Zm35.86,19.53a8.61,8.61,0,0,1-1.25-.6l-0.86-.41h0l-24.73-11.9c-4.11-2.23-6.72-4.22-7.42-7.64a4.54,4.54,0,0,1-.08-0.79l-0.29-12a1.23,1.23,0,0,1,1.71-1.17l2.36,1c4.31,1.77,8.58,3.62,12.84,5.44s8.48,3.69,12.65,5.6q3.19,1.43,6.32,2.87a1.63,1.63,0,0,1,.95,1.4l0,0.77h0C-792.77,1736.19-793.39,1739-795.11,1738.72Zm2.13-38.34a33.44,33.44,0,0,0-.31,3.54c-0.05,1.22,0,2.22,0,3.39s0,2.2.06,3.3l0.16,5.21a1.23,1.23,0,0,1-1.73,1.16l-4.75-2.1c-4.19-1.88-8.45-3.66-12.71-5.5s-8.58-3.61-12.9-5.34l-3.19-1.3a2.34,2.34,0,0,1-1.46-2.11l-0.12-4.87-0.15-6.07-0.06-3a24.21,24.21,0,0,1,.2-3,16,16,0,0,1,.64-2.92,10.41,10.41,0,0,1,.41-1.1q4.19,1.32,8.32,2.72c8.23,2.81,16.26,5.79,23.95,8.9q3.25,1.32,6.42,2.65a11.89,11.89,0,0,0-1.73,2.82A15.81,15.81,0,0,0-793,1700.39Zm37.11,40.91-0.35,16.2a1.14,1.14,0,0,1-1.55,1l-0.23-.09-0.14-.07c-1.4-.77-24.76-13.6-28-15.64-0.86-.54-1.54-1-2.09-1.34-2-1-2.61-6.36-2.75-13.25l0-5.4a1.48,1.48,0,0,1,2.11-1.34q6.64,3.11,13.06,6.21c3.92,1.92,7.77,3.8,11.52,5.7,2.45,1.22,4.86,2.45,7.22,3.67a2.18,2.18,0,0,1,1.18,1.91l0,1.25c0,0.39,0,.76,0,1.14h0Zm0.4-24.28c-0.11.71-.13,1.44-0.2,2.16s-0.05,1.31-.08,2l-0.1,4c-0.09,2.63,0,5.22-.08,7.73q0,0.25,0,.49a1.28,1.28,0,0,1-1.86,1.13q-2.81-1.42-5.71-2.83c-3.76-1.88-7.65-3.72-11.58-5.62q-6.75-3.19-13.78-6.41a3.59,3.59,0,0,1-2.1-3.27v-2.5l0-6.59c0-1.09,0-2.2.07-3.29a31.2,31.2,0,0,1,.32-3.25,15.35,15.35,0,0,1,.84-3.12,9.33,9.33,0,0,1,1.8-2.78h0c4.55,1.93,9,3.87,13.2,5.81,6.92,3.16,13.39,6.3,19.3,9.31l1.62,0.83a16.82,16.82,0,0,0-.75,1.88A24.47,24.47,0,0,0-755.47,1717Zm61.66,97.56a3.37,3.37,0,0,1-2.61-.93,33.9,33.9,0,0,1-7.12-6.73c-13.49-16.89-38.79-33.59-47.67-43.29a12.17,12.17,0,0,1-3.18-7.22,32.4,32.4,0,0,1-.07-3.63h0l0.22-6.08,0.2-5.49a1.62,1.62,0,0,1,2.37-1.38l8.62,4.54,9.56,5.2c3,1.7,6,3.31,8.74,4.89l7.84,4.49,6.85,4,5.79,3.46c3.5,2.08,6.21,3.78,8.07,4.91l2.59,1.59,0,2.85c0,2.94.11,5.81,0.16,8.57s0.11,5.44.21,8l0.26,7.37,0.33,6.65,0.15,3,0.2,2.82,0.15,2.18A8.35,8.35,0,0,1-693.81,1814.57Zm1.2-118c-0.14,4.34-.26,8.72-0.37,13.12A1.48,1.48,0,0,1-695,1711l-5.24-2.25c-6-2.79-11.52-6.37-11.59-8.56,0,0-1.67-29.48,1.27-32.5,0.67,0.4,1.38.74,2.09,1.07l1,0.58c0.92,0.54,2,1.22,3.32,1.94s2.74,1.57,4.35,2.43,3.33,1.83,5.19,2.78l0.32,0.17a4.26,4.26,0,0,1,2.3,3.92Zm0.57,50.86c0-3.3,0-6.64,0-10,0-7.07.07-14.26,0.15-21.45a0.78,0.78,0,0,1,1.21-.76l1.22,0.57c2.11,1,4.27,2,6.51,3l6.79,3a36.87,36.87,0,0,0,3.74,1.33,15.85,15.85,0,0,0,1.8.38q0,7.68.12,15.57c0.07,4.2.11,8.49,0.29,12.74,0.17,3.67.28,7.34,0.46,11l-21.09-8.75a1.88,1.88,0,0,1-1.16-1.73Q-692,1750-692,1747.46Zm42.85-36.07c-3,1.94-5.88,3.75-6.64,4.22l-2.79,1.73-1.44.89c-0.46.3-1,.55-1.5,0.82a30,30,0,0,1-3.2,1.46,11.43,11.43,0,0,1-3.45.8c-0.27,0-.54,0-0.81,0,0-2.33,0-4.64-.07-6.93-0.06-8-.21-15.78-0.32-23.13l-0.1-5.05a17.83,17.83,0,0,0,2.11-.31,16.26,16.26,0,0,0,3.78-1.26,23.11,23.11,0,0,0,3.29-1.87c1.92-1.29,3.67-2.58,5.37-3.81s3.28-2.4,4.74-3.5c7.85-5,12.8-7.9,12.73-2.67h0c0,5.15,0,14.29,0,21.09a35.25,35.25,0,0,1-.74,7.93c-1,2.62-5.6,6-11,9.62Zm11.65-50c-0.23,4.55-7.41,8.93-7.41,8.93l-6.07,3.9-10.47,6.72a18.72,18.72,0,0,1-6.37,2.64,15.52,15.52,0,0,1-1.68.24l-0.26-13.26c-0.13-6.42-.33-12.3-0.51-17.51q-0.09-2.66-.18-5.07c0.54-.14,1.08-0.29,1.59-0.47a33.07,33.07,0,0,0,3.49-1.45c0.55-.26,1.08-0.52,1.61-0.78l1.55-.83,3-1.62c2-1,3.84-2.12,5.62-3.13s3.39-2,5-2.73c11-5.45,12.28-4.93,11.91,2C-636.73,1639-637.43,1659.25-637.54,1661.35Zm48.64,154.57c3,14,1.93,30.14-10.74,37.06-10.81,5.33-28,12.7-28,12.7a44.19,44.19,0,0,1-18.19,4.35c-22.63,0-37.42-22.79-43.53-56.57-0.25-1.06-1.26-11.54-1.41-13.87l-0.34-7.35c-0.13-2.56-.22-5.23-0.3-8s-0.21-5.62-.26-8.55l-0.2-9-0.12-9.44c0.11-.4,0-0.64.78-0.53l21.58,9a92.62,92.62,0,0,0,1.42,11.89,39.32,39.32,0,0,0,4.3,12.22,23.58,23.58,0,0,0,9.12,9c0.49,0.27.93,0.49,1.41,0.73l1.35,0.68c0.89,0.48,1.77,1,2.62,1.49a47.93,47.93,0,0,1,4.88,3.42,55.61,55.61,0,0,1,14.28,17.58,52.12,52.12,0,0,1,5.83,19.5c0.5,6.31-.5,12.24-2.94,16.77a19.74,19.74,0,0,1-4.45,5.6,19.52,19.52,0,0,1-5.18,3.23,26.52,26.52,0,0,1-8.38,2l-1.32.09-1,0h0l1,0,1.33,0a25.85,25.85,0,0,0,8.51-1.76,20,20,0,0,0,5.38-3.17,20.36,20.36,0,0,0,4.73-5.66,26.07,26.07,0,0,0,2.86-7.9,36.71,36.71,0,0,0,.53-9.29,53.33,53.33,0,0,0-5.66-20,58.58,58.58,0,0,0-6.1-9.68,52.87,52.87,0,0,0-8.39-8.54,49.61,49.61,0,0,0-5-3.57c-0.88-.55-1.79-1.06-2.71-1.55l-1.4-.71c-0.44-.22-0.92-0.46-1.33-0.69a21.85,21.85,0,0,1-8.42-8.41,37.58,37.58,0,0,1-4-11.69,95.55,95.55,0,0,1-1.33-11.45l11.61-4.56c0.89,24.32,13.12,31,24.78,35.14,10.37,3.66,20.16,7.11,22.3,24.86l0.2,1.7,17.5-8.19A1.75,1.75,0,0,1-588.9,1815.92Zm-5.32-15.69a64.28,64.28,0,0,1,3.49,8.8,2.72,2.72,0,0,1-1.44,3.28l-14.66,6.89c-2.75-17.82-13.4-21.58-23.7-25.21-11.6-4.09-22.57-8-23-31.85l0.06-4.41-14.43,5.52c-0.21-3.81-.35-7.65-0.54-11.46-0.2-4.26-.26-8.47-0.35-12.69q-0.13-7.8-.19-15.4c0.3,0,.61,0,0.92,0a12.06,12.06,0,0,0,2.19-.35,10.45,10.45,0,0,0,1-.31,9.8,9.8,0,0,0,.95-0.36,31.65,31.65,0,0,0,3.39-1.68l0.78-.44,0.39-.22,0.14-.08,0,0,0.09-.06,0.18-.12q0.72-.47,1.4-1l2.69-1.88c1.76-1.21,3.38-2.42,4.9-3.49,11-7.82,12.83-7.54,12.66-.71,0,1.4-.12,3-0.28,5C-641.44,1791.22-606.93,1777.22-594.22,1800.23Zm-33-209.93c-1.51,7.33-4.79,23.44-6,29.48-1.46,7.07-5.39,10.36-5.39,10.36l-10.64,5.29-10.91,5.42c-2,1-4,2-6.17,3a27.47,27.47,0,0,1-4.17,1.58q-0.07-1.73-.13-3.32c0.09-10.94-2.1-17.24-4-19.41a15.47,15.47,0,0,0-3.53-4.15,1.38,1.38,0,0,1-.32-1.81l12.23-19.59,0.19,0.11c0.73,0.32,1.44.68,2.18,1l1.14,0.36a7.1,7.1,0,0,0,1.15.31,15.25,15.25,0,0,0,2.36.35l1.19,0.07c0.4,0,.8,0,1.19-0.05s0.8,0,1.19-.09l1.17-.23a14.06,14.06,0,0,0,2.28-.65l0.56-.19,0.54-.25,1.07-.5a7.44,7.44,0,0,0,1-.57l1-.62c0.66-.42,1.24-0.94,1.86-1.41s1.13-1.06,1.7-1.59a7.87,7.87,0,0,0,.78-0.85l0.75-.88a20.08,20.08,0,0,0,1.37-1.85c0.22-.32.44-0.63,0.65-0.95l0.58-1c0.29-.51.6-1,0.87-1.54l10.18,1.27A2.43,2.43,0,0,1-627.26,1590.3Zm2.84-12.14a30.84,30.84,0,0,1-1.42,5.52c-1.37,3.69-14.17,1.58-14.17,1.58a22,22,0,0,1-1.17,1.9l-0.61.93c-0.22.3-.45,0.59-0.68,0.88a19.06,19.06,0,0,1-1.41,1.71l-0.76.81a8.06,8.06,0,0,1-.78.78c-0.56.48-1.07,1-1.66,1.44s-1.16.89-1.79,1.25l-0.95.54a6.53,6.53,0,0,1-1,.49l-1,.42-0.5.21-0.52.15a12.67,12.67,0,0,1-2.08.51l-1.06.18c-0.35,0-.71,0-1.07,0a10.65,10.65,0,0,1-1.07,0l-1.06-.09a13.43,13.43,0,0,1-2.1-.37,5.93,5.93,0,0,1-1-.3l-1-.35c-0.66-.27-1.29-0.61-1.93-0.91l-1.78-1.12-0.79-.7c-0.27-.24-0.52-0.51-0.78-0.76a18.16,18.16,0,0,1-1.41-1.64,15.92,15.92,0,0,1-1.18-1.79,15.61,15.61,0,0,1-.9-1.92l-0.34-1c-0.08-.34-0.19-0.68-0.26-1a14.29,14.29,0,0,1-.28-2.1,10.55,10.55,0,0,1,0-1.06,10.24,10.24,0,0,1,0-1.06,16.51,16.51,0,0,1,.31-2.12,19.62,19.62,0,0,1,.55-2.08c0.22-.69.49-1.36,0.77-2s0.62-1.32,1-2,0.73-1.27,1.13-1.88,0.83-1.21,1.28-1.79,0.91-1.16,1.4-1.71,1-1.09,1.51-1.62,1.06-1,1.6-1.54l0.63-.59-0.32-.79-4.5-11.19c1.17-1,2.32-2,3.46-3a113.14,113.14,0,0,0,9.86-9.81,62.34,62.34,0,0,0,8-11.14c0.57-1,1-2,1.54-3.08,0.26-.52.42-1,0.63-1.52l0.3-.76,0.18-.46,0.13-.38c0.7-2,1.37-4,2.11-6,1.45-3.93,3-7.74,4.75-11.33,3.45-7.18,7.44-13.66,12.16-18.7a42.3,42.3,0,0,1,3-3l0.74,7.14,0.95,8.71,1,8.71,1,8.32c-1.13,1.86-2.25,3.73-3.34,5.61l-3.49,5.95-3.43,6c-1.15,2-2.26,4-3.38,6s-2.24,4-3.33,6-2.2,4-3.27,6.07-2.14,4.07-3.2,6.12c-0.53,1-1,2.05-1.56,3.08s-1,2.07-1.52,3.1c0.64-1,1.3-1.9,1.94-2.86s1.28-1.91,1.9-2.88c1.26-1.93,2.5-3.86,3.73-5.81s2.45-3.9,3.65-5.85,2.41-3.92,3.59-5.89,2.38-3.93,3.54-5.92l3.49-5.94,3.43-6c1-1.71,2-3.43,2.91-5.15l16.9,2.92a2.64,2.64,0,0,1,.68.31c0,0.61-.18,2.13-2.07,4.68C-622.87,1557.37-622.89,1571.19-624.42,1578.16Zm41-83.49A40.47,40.47,0,0,1-594,1517l-0.91,1c-1.92,1.72-11.71,0-13.55-.63h0l-7.14-2.28-1-7.91-1.16-8.68-1.17-8.68-1.12-8h0a2,2,0,0,1,0-.76,1.57,1.57,0,0,1-.42-0.28,1.56,1.56,0,0,1-.37-0.3l-8.27-4.22h0c-7.16-4-15.7-8.05-16.32-10.76a10.27,10.27,0,0,1,1.67-7.11s32.45,18.49,32.47,18.48l-4.31,38.24,5.86-38.69,1-.21a19.73,19.73,0,0,1,7.73.05,25.77,25.77,0,0,1,6.25,2.25,37.3,37.3,0,0,1,7.64,5.51c0.82,0.73,1.38,1.36,1.79,1.76l0.61,0.61,0.14-.13-0.59-.63c-0.4-.4-0.95-1-1.75-1.8l-1.35-1.26c-0.49-.46-1.09-0.91-1.7-1.43a34.65,34.65,0,0,0-4.55-3.07,26.34,26.34,0,0,0-6.36-2.43,20.45,20.45,0,0,0-8-.22l-0.69.14h0l-34.15-17.18c2.16-3,6.08-4.38,10.1-4.38a18.44,18.44,0,0,1,6.2,1.08,264.78,264.78,0,0,1,31.62,14.64C-586.85,1476.08-582.07,1484.12-583.45,1494.67Z" transform="translate(1001.51 -1447.21)"/><path class="a" d="M-832,1593.52c2.51-1.21,5-2.47,7.55-3.62a83.06,83.06,0,0,1,16.13-5.05c2.74-.53,5.43-1.35,8.17-1.92l0.45-.09c4-2.13,8-4.12,12.07-6.1,4.68-2.28,9.8-5.16,15.09-6.71q3-2.16,6-4.3c2.7-1.91,5.38-4,8.1-6.09h-243.08v197h234.71c-5.29-4.58-10.38-9.13-17.43-11.45-9.91-3.26-18.89-5.86-27.7-11.67a59.87,59.87,0,0,0-13.2-7,63.72,63.72,0,0,1-9.12-4,4.24,4.24,0,0,1-1.3-.45c-7.66-4.21-15-9.11-22.94-12.8a9.46,9.46,0,0,1-4-1.74,4.16,4.16,0,0,1-1.29-1.72,31,31,0,0,0-3.48-.77l3.37,0.45v0a61.39,61.39,0,0,1-6.56-1.28l1.21,0.16a38,38,0,0,1-11.56-3.68l-1.3,0c-3.27-.08-6.64-0.06-9.78-1.09-0.86-.28-1.7-0.61-2.52-1a37.36,37.36,0,0,1-13,0l-3.48.49a48,48,0,0,1-13.85,3.6c-0.59.23-1.19,0.46-1.78,0.7a3.42,3.42,0,0,1-3.73-.61c-5.48,0-10.92,0-16.42.51-11.36,1-17.55-11.23-21.43-19.91-2.73-6.11-5.64-12.34-7-18.94s0.1-12.65,1.92-19c0.82-2.85,1.54-6.29,3-8.9,1.18-2.15,3.42-3.54,5.37-4.93a24.51,24.51,0,0,1,3.69-3.52,25.55,25.55,0,0,1,3.39-2.21c0.36-.27.72-0.54,1.1-0.8a29.64,29.64,0,0,1,8-3.93c5.82-1.76,11.76-1.42,17.75-2,3.24-.34,7.43-1.13,10.72-0.23a20.22,20.22,0,0,1,6.65.81c0.86-.1,1.73-0.18,2.62-0.24a25.09,25.09,0,0,1,3.64.09c2.21-.94,4.44-1.82,6.68-2.68l-1.16.49a28.7,28.7,0,0,1,10.08-2.31H-891a27.54,27.54,0,0,1,3.3-1.27c0.79-.24,1.6-0.39,2.4-0.55,3.47-1.88,6.87-3.88,10.51-5.42a58.94,58.94,0,0,1,14.2-4.19c1.92-.88,3.87-1.72,5.9-2.57l-5.65,2.38c3.3-1.4,6.57-2.88,9.92-4.15l-0.22.09a57.75,57.75,0,0,1,9.36-3l0.19-.08,0.28,0-0.27,0a40.42,40.42,0,0,1,5.71-2C-834.22,1594.16-833.11,1593.87-832,1593.52Z" transform="translate(1001.51 -1447.21)"/><path class="a" d="M-714.32,1626.61c-2.9,2.08-5.86,4.06-8.92,5.87-0.33.22-.66,0.43-1,0.63-0.63.37-1.26,0.7-1.87,1s-1.35.72-2,1.06a29.36,29.36,0,0,1-4.67,1.87c-5.77,5.61-11.4,11.38-17.45,16.65a26.46,26.46,0,0,1-13.74,6.63,67,67,0,0,1,6.92,7.65c0.4,0.49.77,1,1.15,1.48,1.9,0.93,3.8,1.85,5.73,2.73,6.63,3,13.24,6,19.73,9.34,2.83,1.46,5.78,2.66,8.55,4.24,0.68,0.39,1.34.8,2,1.22a5.66,5.66,0,0,1,.87-0.37,3.3,3.3,0,0,1,1.74-.08,3.24,3.24,0,0,1,1.62.52,3.37,3.37,0,0,1,.31.22c-0.27-8.18.25-16.51,0.1-24.62a59.25,59.25,0,0,1,1.39-13.83c1-4.61,2.39-9.34,1.72-14.1a4.28,4.28,0,0,1,1.79-4.16c-1.3-2-1-5,1.34-6.21a6.25,6.25,0,0,1,1.47-.55,14,14,0,0,1,.16-1.57c-0.41.29-.82,0.59-1.23,0.87C-710.51,1624.37-712.42,1625.49-714.32,1626.61Z" transform="translate(1001.51 -1447.21)"/><path class="a" d="M-504.82,1655h-31.43v45.9h31.74c16.34,0,27.54-7.16,27.54-22.25C-477,1663.42-490,1655-504.82,1655Z" transform="translate(1001.51 -1447.21)"/><path class="a" d="M-397,1610.21c-0.16.16-7.62,17.89-12,28l-13.23,30.5h50.72l-13.23-30.34c-4.36-10.11-11.83-28-12-28.16H-397Z" transform="translate(1001.51 -1447.21)"/><path class="a" d="M-484.75,1627.48c0-12-9.34-19.6-25.05-19.6h-26.45v39.83h27.85C-494.71,1647.71-484.75,1640.86-484.75,1627.48Z" transform="translate(1001.51 -1447.21)"/><path class="a" d="M-612.28,1559.64l0,0.09a5.29,5.29,0,0,0-1.5-.21c-5.67,0-6.31,7.8-1.93,9.57-0.95,3.18-1.82,6.4-2.72,9.53-0.8,2.81-1.51,5.71-2.24,8.54a61.65,61.65,0,0,1-2.45,7.4l0.17-.4c-2.68,6.44-4,13.7-5.41,20.52l0.84-6.29c-0.81,6-2,11.77-3.17,17.71-0.62,3.17-1.66,6.24-2.4,9.39-0.26,3.45-.48,6.83-1.09,10.37,0,0.25-.1.5-0.15,0.76-0.05,1.94-.12,3.89-0.19,5.83a23.37,23.37,0,0,1,3,11.24c0,2.5-.13,5,0,7.56a45.5,45.5,0,0,1,.5,6.77c0,2.19-.24,4.42-0.07,6.6l-0.17-1.25c0.3,2.78.45,5.53,0.55,8.3a5.35,5.35,0,0,0-4.42,6.13c0.17,1,.3,2,0.43,3a5.51,5.51,0,0,0,.5,5.12,102.72,102.72,0,0,1-.6,19.68c-0.51,4.16-1.06,8.33-.45,12.52,0.69,4.75,2.59,8.7,2.72,13.65a4.87,4.87,0,0,0,5.37,4.78l0,0.11H382.05v-197H-612.28Zm108.08,149.22h-40.92V1599.94h36.88c20.07,0,32.52,11,32.52,26.45,0,14.94-9.65,21.94-17.89,23.81v0.47c10.11,1.25,26,8.56,26,28.16C-467.64,1697.81-481.17,1708.86-504.2,1708.86Zm150,0-13.85-31.9h-57.73l-13.85,31.9h-9.49l47.61-108.92H-392l47.46,108.92h-9.65Zm79.5,1.87c-31.43,0-55.86-22.25-55.86-56.64,0-34.54,24.12-56.32,55.86-56.32,25.21,0,42.32,13.54,49.17,29.25l-8.71,2.49c-3.58-7.16-14.63-23.18-40.46-23.18-27.38,0-46.83,18.2-46.83,47.77,0,30,20.54,48.23,46.52,48.23,18.67,0,34.7-9.8,42.32-26l8.71,2.33C-232.7,1698.9-251.84,1710.72-274.71,1710.72Zm151.54-1.87-42.48-59.13-20.85,21.47v37.65h-8.87V1599.94h8.87v35c0,15.4-.16,25.21-0.16,25.36h0.31l19.29-20.23,38.74-40.14h11l-41.7,43.41,46.37,65.66Zm107-92.89H-73.54v31.12h45.28v16H-73.54v45.74H-90.66V1599.94h74.53v16Zm100.67,92.89H8.76V1599.94H84.07v16H25.88v28.47H70.54v16H25.88v32.36H84.54v16Zm102.22,0H111V1599.94h75.31v16H128.1v28.47h44.66v16H128.1v32.36h58.66v16Zm67.68,0H213.2V1599.94h40.61c33.3,0,57.57,21.63,57.57,54.92C311.38,1688.32,287,1708.86,254.44,1708.86Z" transform="translate(1001.51 -1447.21)"/><path class="a" d="M252.88,1616H230.32v76.86H253.5c21.63,0,40.61-11.83,40.61-38C294.11,1628.88,275.29,1616,252.88,1616Z" transform="translate(1001.51 -1447.21)"/></svg>